ModelForces
version=1
nRows=4
nColumns=71
inDegrees=no

This file contains the forces exerted on a model during a simulation.

A force is a generalized force, meaning that it can be either a force (N) or a torque (Nm).

Units are S.I. units (second, meters, Newtons, ...)
Angles are in degrees.

endheader
time	semimem_r	semiten_r	bifemlh_r	bifemsh_r	sar_r	grac_r	rect_fem_r	vas_med_r	vas_int_r	vas_lat_r	med_gas_r	lat_gas_r	contactForce_femur_lat_meniscii_l.femur_lat_l.force.X	contactForce_femur_lat_meniscii_l.femur_lat_l.force.Y	contactForce_femur_lat_meniscii_l.femur_lat_l.force.Z	contactForce_femur_lat_meniscii_l.femur_lat_l.torque.X	contactForce_femur_lat_meniscii_l.femur_lat_l.torque.Y	contactForce_femur_lat_meniscii_l.femur_lat_l.torque.Z	contactForce_femur_lat_meniscii_l.meniscus_lat_l.force.X	contactForce_femur_lat_meniscii_l.meniscus_lat_l.force.Y	contactForce_femur_lat_meniscii_l.meniscus_lat_l.force.Z	contactForce_femur_lat_meniscii_l.meniscus_lat_l.torque.X	contactForce_femur_lat_meniscii_l.meniscus_lat_l.torque.Y	contactForce_femur_lat_meniscii_l.meniscus_lat_l.torque.Z	contactForce_femur_med_meniscii_l.femur_med_l.force.X	contactForce_femur_med_meniscii_l.femur_med_l.force.Y	contactForce_femur_med_meniscii_l.femur_med_l.force.Z	contactForce_femur_med_meniscii_l.femur_med_l.torque.X	contactForce_femur_med_meniscii_l.femur_med_l.torque.Y	contactForce_femur_med_meniscii_l.femur_med_l.torque.Z	contactForce_femur_med_meniscii_l.meniscus_med_l.force.X	contactForce_femur_med_meniscii_l.meniscus_med_l.force.Y	contactForce_femur_med_meniscii_l.meniscus_med_l.force.Z	contactForce_femur_med_meniscii_l.meniscus_med_l.torque.X	contactForce_femur_med_meniscii_l.meniscus_med_l.torque.Y	contactForce_femur_med_meniscii_l.meniscus_med_l.torque.Z	contactForce_femur_lat_meniscii_r.femur_lat_r.force.X	contactForce_femur_lat_meniscii_r.femur_lat_r.force.Y	contactForce_femur_lat_meniscii_r.femur_lat_r.force.Z	contactForce_femur_lat_meniscii_r.femur_lat_r.torque.X	contactForce_femur_lat_meniscii_r.femur_lat_r.torque.Y	contactForce_femur_lat_meniscii_r.femur_lat_r.torque.Z	contactForce_femur_lat_meniscii_r.meniscus_lat_r.force.X	contactForce_femur_lat_meniscii_r.meniscus_lat_r.force.Y	contactForce_femur_lat_meniscii_r.meniscus_lat_r.force.Z	contactForce_femur_lat_meniscii_r.meniscus_lat_r.torque.X	contactForce_femur_lat_meniscii_r.meniscus_lat_r.torque.Y	contactForce_femur_lat_meniscii_r.meniscus_lat_r.torque.Z	contactForce_femur_med_meniscii_r.femur_med_r.force.X	contactForce_femur_med_meniscii_r.femur_med_r.force.Y	contactForce_femur_med_meniscii_r.femur_med_r.force.Z	contactForce_femur_med_meniscii_r.femur_med_r.torque.X	contactForce_femur_med_meniscii_r.femur_med_r.torque.Y	contactForce_femur_med_meniscii_r.femur_med_r.torque.Z	contactForce_femur_med_meniscii_r.meniscus_med_r.force.X	contactForce_femur_med_meniscii_r.meniscus_med_r.force.Y	contactForce_femur_med_meniscii_r.meniscus_med_r.force.Z	contactForce_femur_med_meniscii_r.meniscus_med_r.torque.X	contactForce_femur_med_meniscii_r.meniscus_med_r.torque.Y	contactForce_femur_med_meniscii_r.meniscus_med_r.torque.Z	aACL_R	pACL_R	aPCL_R	pPCL_R	aMCL_R	aLCL_R	aPCL_L	pPCL_L	aMCL_L	aLCL_L
      0.22235818	     55.72792635	    105.57972130	     64.28331142	    144.58362494	     72.29201828	     60.00226593	     29.31934531	     21.94860658	     21.76514182	     30.36702961	      0.00000000	      0.00000000	      1.36711406	      8.47057143	     -0.30716583	      0.31077056	     -0.02716165	      0.69757018	     -1.36711406	     -8.47057143	      0.30716583	     -0.32260280	      0.04859694	     -0.15912116	      0.00000000	      0.00000000	      0.00000000	      0.00000000	      0.00000000	      0.00000000	      0.00000000	      0.00000000	      0.00000000	      0.00000000	      0.00000000	      0.00000000	     45.32336331	    288.80775133	    -13.36169697	     -1.63576691	      0.92078916	     15.90887212	    -45.32336331	   -288.80775133	     13.36169697	      7.65264164	     -0.82638086	      6.54118413	    160.31483952	    255.01247085	     46.37967841	    -13.49234103	     -3.54207690	     63.34919177	   -160.31483952	   -255.01247085	    -46.37967841	     -3.48219890	      2.22658106	      2.55765783	      0.00000000	      0.00000000	    239.41832403	      0.00000000	      0.00000000	      0.00000000	     16.45689702	      0.00000000	     17.11792811	     48.97235636
      0.22336915	     55.37044530	    105.97891069	     63.97405893	    144.11235720	     72.25697946	     60.03021779	     29.50037889	     17.19457012	     23.31497747	     30.92569563	      0.00000000	      0.00000000	      1.29017154	      8.78550772	     -0.34029077	      0.33129830	     -0.02505592	      0.67024717	     -1.29017154	     -8.78550772	      0.34029077	     -0.33529813	      0.04536357	     -0.16111635	      0.00000000	      0.00000000	      0.00000000	      0.00000000	      0.00000000	      0.00000000	      0.00000000	      0.00000000	      0.00000000	      0.00000000	      0.00000000	      0.00000000	     45.20224465	    293.38451197	    -13.97381347	     -1.51005291	      0.89902568	     15.81468574	    -45.20224465	   -293.38451197	     13.97381347	      7.78771219	     -0.79386661	      6.70002246	    162.62410489	    253.62154273	     45.07190309	    -12.99952457	     -3.59221568	     64.27020920	   -162.62410489	   -253.62154273	    -45.07190309	     -3.46967664	      2.28166622	      2.52689665	      0.00000000	      0.00000000	    243.69540034	      0.00000000	      0.00000000	      0.00000000	     16.47369884	      0.00000000	     17.15683003	     48.88993151
      0.22438011	     55.01617270	    106.40767339	     63.69726665	    143.89806445	     72.34167474	     60.13406383	     29.70575342	     22.81963849	     21.04537294	     30.11590187	      0.00000000	      0.00000000	      1.19882195	      9.06338207	     -0.38310956	      0.35517051	     -0.02263339	      0.63640865	     -1.19882195	     -9.06338207	      0.38310956	     -0.34699911	      0.04159797	     -0.16218579	      0.00000000	      0.00000000	      0.00000000	      0.00000000	      0.00000000	      0.00000000	      0.00000000	      0.00000000	      0.00000000	      0.00000000	      0.00000000	      0.00000000	     47.14874365	    301.48525697	    -14.38315780	     -1.56805833	      0.94492207	     16.55112411	    -47.14874365	   -301.48525697	     14.38315780	      8.04063818	     -0.83909982	      6.88447037	    164.71479503	    250.92738302	     44.00241074	    -12.61812321	     -3.65415257	     65.14844126	   -164.71479503	   -250.92738302	    -44.00241074	     -3.44113017	      2.34493956	      2.43226567	      0.00000000	      0.00000000	    247.85320222	      0.00000000	      0.00000000	      0.00000000	     16.46196933	      0.00000000	     17.21215969	     48.81754622
      0.22539108	     54.64465831	    106.82465138	     63.43403821	    143.73922688	     72.42814381	     60.24204893	     29.89074663	     18.26094718	     24.26965413	     30.90566161	      0.00000000	      0.00000000	      1.10254256	      9.34939489	     -0.39965787	      0.36812430	     -0.02049003	      0.60072662	     -1.10254256	     -9.34939489	      0.39965787	     -0.35813158	      0.03801129	     -0.16327594	      0.00000000	      0.00000000	      0.00000000	      0.00000000	      0.00000000	      0.00000000	      0.00000000	      0.00000000	      0.00000000	      0.00000000	      0.00000000	      0.00000000	     49.40428678	    307.85614246	    -14.79056791	     -1.58776995	      0.99692944	     17.44454414	    -49.40428678	   -307.85614246	     14.79056791	      8.24978229	     -0.89157379	      7.00119405	    169.19391834	    245.78115328	     42.70519563	    -12.22450384	     -3.76486105	     67.01080296	   -169.19391834	   -245.78115328	    -42.70519563	     -3.34550808	      2.45330222	      2.22451423	      0.00000000	      0.00000000	    251.69440846	      0.00000000	      0.00000000	      0.00000000	     16.40962950	      0.00000000	     17.27935925	     48.75697175
